# Blender v3.0.1 OBJ File: 'pitchfork.blend'
# www.blender.org
o Cube
v -0.429240 2.101076 -0.240325
v -0.429240 -2.645504 -0.242562
v -0.429240 2.101076 0.240325
v -0.429240 -2.645504 0.237344
v 0.271652 2.098009 -0.177209
v 0.429240 -2.645504 -0.242562
v 0.271652 2.098009 0.171990
v 0.429240 -2.645504 0.237344
v -0.429240 1.568096 -0.240325
v 0.429240 1.023667 0.237344
v -0.429240 1.568096 0.240325
v 0.429240 1.023667 -0.242562
v -0.271652 2.098009 -0.177209
v -0.271652 2.098009 0.171990
v -0.429240 1.023667 -0.242562
v -0.429240 1.023667 0.237344
v -2.277906 2.101076 -0.159180
v -2.277906 2.101076 0.159180
v -2.270332 1.568096 -0.240325
v -2.270332 1.568096 0.240325
v -1.656346 1.568096 -0.240325
v -1.656346 1.568096 0.240325
v -1.771451 2.101076 -0.159180
v -1.771451 2.101076 0.159180
v -2.270332 2.101076 -0.240325
v -2.270332 2.101076 0.240325
v -1.656346 2.101076 -0.240325
v -1.656346 2.101076 0.240325
v -2.277906 6.053130 -0.159180
v -2.277906 6.053130 0.159180
v -1.771451 6.053130 -0.159180
v -1.771451 6.053130 0.159180
v -0.429240 2.098009 0.237344
v 0.429240 2.098009 0.237344
v -0.429240 2.098009 -0.242562
v 0.429240 2.098009 -0.242562
v -0.271652 6.119490 0.171990
v 0.271652 6.119490 0.171990
v -0.271652 6.119490 -0.177209
v 0.271652 6.119490 -0.177209
v 0.429240 2.101076 -0.240325
v 0.429240 -2.645504 -0.242562
v 0.429240 2.101076 0.240325
v 0.429240 -2.645504 0.237344
v -0.271652 2.098009 -0.177209
v -0.429240 -2.645504 -0.242562
v -0.271652 2.098009 0.171990
v -0.429240 -2.645504 0.237344
v 0.429240 1.568096 -0.240325
v -0.429240 1.023667 0.237344
v 0.429240 1.568096 0.240325
v -0.429240 1.023667 -0.242562
v 0.271652 2.098009 -0.177209
v 0.271652 2.098009 0.171990
v 0.429240 1.023667 -0.242562
v 0.429240 1.023667 0.237344
v 2.277906 2.101076 -0.159180
v 2.277906 2.101076 0.159180
v 2.270332 1.568096 -0.240325
v 2.270332 1.568096 0.240325
v 1.656346 1.568096 -0.240325
v 1.656346 1.568096 0.240325
v 1.771451 2.101076 -0.159180
v 1.771451 2.101076 0.159180
v 2.270332 2.101076 -0.240325
v 2.270332 2.101076 0.240325
v 1.656346 2.101076 -0.240325
v 1.656346 2.101076 0.240325
v 2.277906 6.053130 -0.159180
v 2.277906 6.053130 0.159180
v 1.771451 6.053130 -0.159180
v 1.771451 6.053130 0.159180
v 0.429240 2.098009 0.237344
v -0.429240 2.098009 0.237344
v 0.429240 2.098009 -0.242562
v -0.429240 2.098009 -0.242562
v 0.271652 6.119490 0.171990
v -0.271652 6.119490 0.171990
v 0.271652 6.119490 -0.177209
v -0.271652 6.119490 -0.177209
vt 0.134802 0.603244
vt 0.253674 0.690724
vt 0.219484 0.594025
vt 0.211220 0.371015
vt 0.200969 0.319623
vt 0.000125 0.663107
vt 0.064319 0.642446
vt 0.308845 0.999875
vt 0.645983 0.141606
vt 0.656085 0.192811
vt 0.698633 0.180094
vt 0.309095 0.414240
vt 0.528616 0.701038
vt 0.528615 0.354522
vt 0.279783 0.868344
vt 0.308845 0.348931
vt 0.528866 0.321574
vt 0.528866 0.000845
vt 0.688532 0.128888
vt 0.815750 0.320854
vt 0.815750 0.000125
vt 0.275571 0.342312
vt 0.207177 0.342432
vt 0.246496 0.328173
vt 0.266842 0.376719
vt 0.236938 0.319935
vt 0.411528 0.241116
vt 0.403457 0.264831
vt 0.369789 0.302154
vt 0.512253 0.465301
vt 0.478183 0.298250
vt 0.431478 0.237803
vt 0.456552 0.314489
vt 0.405157 0.139251
vt 0.246613 0.042120
vt 0.209495 0.086024
vt 0.209448 0.000125
vt 0.247903 0.079223
vt 0.414843 0.222365
vt 0.409456 0.261687
vt 0.402076 0.157557
vt 0.395026 0.108390
vt 0.373201 0.000125
vt 0.191633 0.462549
vt 0.263788 0.487845
vt 0.225385 0.542402
vt 0.205463 0.533120
vt 0.192631 0.575517
vt 0.219484 0.594025
vt 0.253674 0.690724
vt 0.134802 0.603244
vt 0.000125 0.663107
vt 0.200969 0.319623
vt 0.211220 0.371015
vt 0.308845 0.999875
vt 0.064319 0.642446
vt 0.698633 0.180094
vt 0.656085 0.192811
vt 0.645983 0.141606
vt 0.528615 0.354522
vt 0.528616 0.701038
vt 0.309095 0.414240
vt 0.308845 0.348931
vt 0.279783 0.868344
vt 0.528866 0.321574
vt 0.688532 0.128888
vt 0.528866 0.000845
vt 0.815750 0.320854
vt 0.815750 0.000125
vt 0.207177 0.342432
vt 0.275571 0.342312
vt 0.266842 0.376719
vt 0.246496 0.328173
vt 0.236938 0.319935
vt 0.403457 0.264831
vt 0.411528 0.241116
vt 0.369789 0.302154
vt 0.478183 0.298250
vt 0.512253 0.465301
vt 0.405157 0.139251
vt 0.456552 0.314489
vt 0.431478 0.237803
vt 0.246613 0.042120
vt 0.209495 0.086024
vt 0.209448 0.000125
vt 0.247903 0.079223
vt 0.414843 0.222365
vt 0.409456 0.261687
vt 0.395026 0.108390
vt 0.402076 0.157557
vt 0.373201 0.000125
vt 0.191633 0.462549
vt 0.263788 0.487845
vt 0.205463 0.533120
vt 0.225385 0.542402
vt 0.192631 0.575517
vn 1.0000 0.0000 0.0000
vn 0.0000 0.0000 1.0000
vn 0.0000 -1.0000 0.0000
vn 0.0000 0.0000 -1.0000
vn -1.0000 0.0000 0.0000
vn 0.0000 1.0000 0.0000
s off
f 7/1/1 5/2/1 40/3/1
f 33/4/2 16/5/2 10/6/2
f 34/7/1 10/6/1 12/8/1
f 2/9/3 6/10/3 8/11/3
f 21/12/3 22/13/3 20/14/3
f 36/15/4 12/8/4 15/16/4
f 12/17/4 6/10/4 2/9/4
f 15/18/5 2/9/5 4/19/5
f 10/20/1 8/11/1 6/10/1
f 16/21/2 4/19/2 8/11/2
f 1/22/1 3/23/1 33/4/1
f 9/24/5 1/22/5 35/25/5
f 11/26/1 16/5/1 33/4/1
f 9/24/5 15/16/5 16/5/5
f 25/27/5 19/28/5 20/14/5
f 27/29/4 21/12/4 19/28/4
f 22/13/2 28/30/2 26/31/2
f 18/32/2 24/33/2 32/34/2
f 3/23/6 1/22/6 27/35/6
f 11/26/2 3/23/2 28/36/2
f 1/22/4 9/24/4 21/37/4
f 9/24/3 11/26/3 22/38/3
f 18/32/3 17/39/3 25/27/3
f 23/40/6 27/29/6 25/27/6
f 24/33/6 18/32/6 26/31/6
f 23/40/6 24/33/6 28/30/6
f 32/34/6 31/41/6 29/42/6
f 17/39/5 18/32/5 30/43/5
f 24/33/1 23/40/1 31/41/1
f 23/40/4 17/39/4 29/42/4
f 7/1/6 14/44/6 33/4/6
f 14/44/6 13/45/6 35/25/6
f 5/2/6 7/1/6 34/7/6
f 13/45/6 5/2/6 36/15/6
f 40/3/6 39/46/6 37/47/6
f 14/44/2 7/1/2 38/48/2
f 5/2/4 13/45/4 39/46/4
f 13/45/5 14/44/5 37/47/5
f 80/49/5 45/50/5 47/51/5
f 50/52/2 56/53/2 73/54/2
f 52/55/5 50/52/5 74/56/5
f 48/57/3 46/58/3 42/59/3
f 60/60/3 62/61/3 61/62/3
f 55/63/4 52/55/4 76/64/4
f 42/59/4 46/58/4 52/65/4
f 44/66/1 42/59/1 55/67/1
f 46/58/5 48/57/5 50/68/5
f 48/57/2 44/66/2 56/69/2
f 73/54/5 43/70/5 41/71/5
f 75/72/1 41/71/1 49/73/1
f 51/74/5 43/70/5 73/54/5
f 49/73/1 51/74/1 56/53/1
f 60/60/1 59/75/1 65/76/1
f 59/75/4 61/62/4 67/77/4
f 66/78/2 68/79/2 62/61/2
f 72/80/2 64/81/2 58/82/2
f 67/83/6 41/71/6 43/70/6
f 68/84/2 43/70/2 51/74/2
f 61/85/4 49/73/4 41/71/4
f 62/86/3 51/74/3 49/73/3
f 65/76/3 57/87/3 58/82/3
f 63/88/6 57/87/6 65/76/6
f 66/78/6 58/82/6 64/81/6
f 68/79/6 64/81/6 63/88/6
f 69/89/6 71/90/6 72/80/6
f 70/91/1 58/82/1 57/87/1
f 71/90/5 63/88/5 64/81/5
f 69/89/4 57/87/4 63/88/4
f 73/54/6 54/92/6 47/51/6
f 75/72/6 53/93/6 54/92/6
f 74/56/6 47/51/6 45/50/6
f 76/64/6 45/50/6 53/93/6
f 77/94/6 79/95/6 80/49/6
f 78/96/2 47/51/2 54/92/2
f 79/95/4 53/93/4 45/50/4
f 77/94/1 54/92/1 53/93/1
f 7/1/1 40/3/1 38/48/1
f 33/4/2 10/6/2 34/7/2
f 34/7/1 12/8/1 36/15/1
f 2/9/3 8/11/3 4/19/3
f 21/12/3 20/14/3 19/28/3
f 36/15/4 15/16/4 35/25/4
f 12/17/4 2/9/4 15/18/4
f 15/18/5 4/19/5 16/21/5
f 10/20/1 6/10/1 12/17/1
f 16/21/2 8/11/2 10/20/2
f 1/22/1 33/4/1 35/25/1
f 9/24/5 35/25/5 15/16/5
f 11/26/1 33/4/1 3/23/1
f 9/24/5 16/5/5 11/26/5
f 25/27/5 20/14/5 26/31/5
f 27/29/4 19/28/4 25/27/4
f 22/13/2 26/31/2 20/14/2
f 18/32/2 32/34/2 30/43/2
f 3/23/6 27/35/6 28/36/6
f 11/26/2 28/36/2 22/38/2
f 1/22/4 21/37/4 27/35/4
f 9/24/3 22/38/3 21/37/3
f 18/32/3 25/27/3 26/31/3
f 23/40/6 25/27/6 17/39/6
f 24/33/6 26/31/6 28/30/6
f 23/40/6 28/30/6 27/29/6
f 32/34/6 29/42/6 30/43/6
f 17/39/5 30/43/5 29/42/5
f 24/33/1 31/41/1 32/34/1
f 23/40/4 29/42/4 31/41/4
f 7/1/6 33/4/6 34/7/6
f 14/44/6 35/25/6 33/4/6
f 5/2/6 34/7/6 36/15/6
f 13/45/6 36/15/6 35/25/6
f 40/3/6 37/47/6 38/48/6
f 14/44/2 38/48/2 37/47/2
f 5/2/4 39/46/4 40/3/4
f 13/45/5 37/47/5 39/46/5
f 80/49/5 47/51/5 78/96/5
f 50/52/2 73/54/2 74/56/2
f 52/55/5 74/56/5 76/64/5
f 48/57/3 42/59/3 44/66/3
f 60/60/3 61/62/3 59/75/3
f 55/63/4 76/64/4 75/72/4
f 42/59/4 52/65/4 55/67/4
f 44/66/1 55/67/1 56/69/1
f 46/58/5 50/68/5 52/65/5
f 48/57/2 56/69/2 50/68/2
f 73/54/5 41/71/5 75/72/5
f 75/72/1 49/73/1 55/63/1
f 51/74/5 73/54/5 56/53/5
f 49/73/1 56/53/1 55/63/1
f 60/60/1 65/76/1 66/78/1
f 59/75/4 67/77/4 65/76/4
f 66/78/2 62/61/2 60/60/2
f 72/80/2 58/82/2 70/91/2
f 67/83/6 43/70/6 68/84/6
f 68/84/2 51/74/2 62/86/2
f 61/85/4 41/71/4 67/83/4
f 62/86/3 49/73/3 61/85/3
f 65/76/3 58/82/3 66/78/3
f 63/88/6 65/76/6 67/77/6
f 66/78/6 64/81/6 68/79/6
f 68/79/6 63/88/6 67/77/6
f 69/89/6 72/80/6 70/91/6
f 70/91/1 57/87/1 69/89/1
f 71/90/5 64/81/5 72/80/5
f 69/89/4 63/88/4 71/90/4
f 73/54/6 47/51/6 74/56/6
f 75/72/6 54/92/6 73/54/6
f 74/56/6 45/50/6 76/64/6
f 76/64/6 53/93/6 75/72/6
f 77/94/6 80/49/6 78/96/6
f 78/96/2 54/92/2 77/94/2
f 79/95/4 45/50/4 80/49/4
f 77/94/1 53/93/1 79/95/1
